# xmcd
#
# Track frame offsets:
#	150
#	11192
#	27624
#	40423
#	51721
#	64038
#	74960
#	87276
#	99473
#	109030
#	117993
#	129925
#	142801
#	157544
#	171537
#	186945
#
# Disc length: 2649 seconds
#
# Revision: 1
# Processed by: cddbd v1.5.1PL2 Copyright (c) Steve Scherf et al.
# Submitted via: audiograbber 1.83.01
#
DISCID=e90a5710
DTITLE=Memphis Slim - Born With The Blues
DYEAR=1955
DGENRE=Blues
TTITLE0=Lonesome
TTITLE1=Cold Blooded Woman
TTITLE2=One Man's Mad
TTITLE3=Let the Good Times Roll Creole
TTITLE4=What is the Mare-Rack
TTITLE5=Pigalle Love
TTITLE6=Four Walls
TTITLE7=It's Been Too Long
TTITLE8=Big Bertha
TTITLE9=I'm Lost Without You
TTITLE10=I'll Keep on Singing The Blues
TTITLE11=True Love
TTITLE12=Help Me Some
TTITLE13=Ain't Nobody's Business
TTITLE14=Born With The Blues
TTITLE15=Memphis Slim U.S.A. 
EXTD=
EXTT0=hairyroot.com
EXTT1=
EXTT2=
EXTT3=
EXTT4=
EXTT5=
EXTT6=
EXTT7=
EXTT8=
EXTT9=
EXTT10=
EXTT11=
EXTT12=
EXTT13=
EXTT14=
EXTT15=
PLAYORDER=
